<?xml version="1.0" encoding="UTF-8"?>
<!DOCTYPE svg PUBLIC "-//W3C//DTD SVG 1.1//EN" "http://www.w3.org/Graphics/SVG/1.1/DTD/svg11.dtd">
<svg version="1.1" xmlns="http://www.w3.org/2000/svg" xmlns:xlink="http://www.w3.org/1999/xlink" x="0px" y="0px" width="1200" height="750" viewBox="0, 0, 1200, 750">
  <g id="Background">
    <rect x="0" y="0" width="1200" height="750" fill="#000000" fill-opacity="0"/>
  </g>
  <g id="Background"/>
  <g id="Layer 1">
    <g>
      <path d="M960.5,80.5 L1040.5,80.5 L1040.5,160.5 L960.5,160.5 z" fill="#FABA00"/>
      <path d="M960.5,80.5 L1040.5,80.5 L1040.5,160.5 L960.5,160.5 z" fill-opacity="0" stroke="#737370" stroke-width="2"/>
    </g>
    <g>
      <path d="M960.5,160.5 L1040.5,160.5 L1040.5,240.5 L960.5,240.5 z" fill="#8FC7ED"/>
      <path d="M960.5,160.5 L1040.5,160.5 L1040.5,240.5 L960.5,240.5 z" fill-opacity="0" stroke="#737370" stroke-width="2"/>
    </g>
    <g>
      <path d="M1040.5,160.5 L1120.5,160.5 L1120.5,240.5 L1040.5,240.5 z" fill="#8FC7ED"/>
      <path d="M1040.5,160.5 L1120.5,160.5 L1120.5,240.5 L1040.5,240.5 z" fill-opacity="0" stroke="#737370" stroke-width="2"/>
    </g>
    <g>
      <path d="M160.5,80.5 L240.5,80.5 L240.5,160.5 L160.5,160.5 z" fill="#8FC7ED"/>
      <path d="M160.5,80.5 L240.5,80.5 L240.5,160.5 L160.5,160.5 z" fill-opacity="0" stroke="#737370" stroke-width="2"/>
    </g>
    <g>
      <path d="M240.5,80.5 L320.5,80.5 L320.5,160.5 L240.5,160.5 z" fill="#FABA00"/>
      <path d="M240.5,80.5 L320.5,80.5 L320.5,160.5 L240.5,160.5 z" fill-opacity="0" stroke="#737370" stroke-width="2"/>
    </g>
    <g>
      <path d="M320.5,80.5 L400.5,80.5 L400.5,160.5 L320.5,160.5 z" fill="#FABA00"/>
      <path d="M320.5,80.5 L400.5,80.5 L400.5,160.5 L320.5,160.5 z" fill-opacity="0" stroke="#737370" stroke-width="2"/>
    </g>
    <g>
      <path d="M400.5,80.5 L480.5,80.5 L480.5,160.5 L400.5,160.5 z" fill="#8FC7ED"/>
      <path d="M400.5,80.5 L480.5,80.5 L480.5,160.5 L400.5,160.5 z" fill-opacity="0" stroke="#737370" stroke-width="2"/>
    </g>
    <g>
      <path d="M80.5,160.5 L160.5,160.5 L160.5,240.5 L80.5,240.5 z" fill="#8FC7ED"/>
      <path d="M80.5,160.5 L160.5,160.5 L160.5,240.5 L80.5,240.5 z" fill-opacity="0" stroke="#737370" stroke-width="2"/>
    </g>
    <g>
      <path d="M160.5,160.5 L240.5,160.5 L240.5,240.5 L160.5,240.5 z" fill="#FABA00"/>
      <path d="M160.5,160.5 L240.5,160.5 L240.5,240.5 L160.5,240.5 z" fill-opacity="0" stroke="#737370" stroke-width="2"/>
    </g>
    <g>
      <path d="M240.5,160.5 L320.5,160.5 L320.5,240.5 L240.5,240.5 z" fill="#FABA00"/>
      <path d="M240.5,160.5 L320.5,160.5 L320.5,240.5 L240.5,240.5 z" fill-opacity="0" stroke="#737370" stroke-width="2"/>
    </g>
    <g>
      <path d="M320.5,160.5 L400.5,160.5 L400.5,240.5 L320.5,240.5 z" fill="#8FC7ED"/>
      <path d="M320.5,160.5 L400.5,160.5 L400.5,240.5 L320.5,240.5 z" fill-opacity="0" stroke="#737370" stroke-width="2"/>
    </g>
    <g>
      <path d="M400.5,160.5 L480.5,160.5 L480.5,240.5 L400.5,240.5 z" fill="#8FC7ED"/>
      <path d="M400.5,160.5 L480.5,160.5 L480.5,240.5 L400.5,240.5 z" fill-opacity="0" stroke="#737370" stroke-width="2"/>
    </g>
    <g>
      <path d="M80.5,240.5 L160.5,240.5 L160.5,320.5 L80.5,320.5 z" fill="#8FC7ED"/>
      <path d="M80.5,240.5 L160.5,240.5 L160.5,320.5 L80.5,320.5 z" fill-opacity="0" stroke="#737370" stroke-width="2"/>
    </g>
    <g>
      <path d="M160.5,240.5 L240.5,240.5 L240.5,320.5 L160.5,320.5 z" fill="#8FC7ED"/>
      <path d="M160.5,240.5 L240.5,240.5 L240.5,320.5 L160.5,320.5 z" fill-opacity="0" stroke="#737370" stroke-width="2"/>
    </g>
    <g>
      <path d="M240.5,240.5 L320.5,240.5 L320.5,320.5 L240.5,320.5 z" fill="#8FC7ED"/>
      <path d="M240.5,240.5 L320.5,240.5 L320.5,320.5 L240.5,320.5 z" fill-opacity="0" stroke="#737370" stroke-width="2"/>
    </g>
    <g>
      <path d="M320.5,240.5 L400.5,240.5 L400.5,320.5 L320.5,320.5 z" fill="#FABA00"/>
      <path d="M320.5,240.5 L400.5,240.5 L400.5,320.5 L320.5,320.5 z" fill-opacity="0" stroke="#737370" stroke-width="2"/>
    </g>
    <g>
      <path d="M400.5,240.5 L480.5,240.5 L480.5,320.5 L400.5,320.5 z" fill="#FABA00"/>
      <path d="M400.5,240.5 L480.5,240.5 L480.5,320.5 L400.5,320.5 z" fill-opacity="0" stroke="#737370" stroke-width="2"/>
    </g>
    <g>
      <path d="M80.5,320.5 L160.5,320.5 L160.5,400.5 L80.5,400.5 z" fill="#FABA00"/>
      <path d="M80.5,320.5 L160.5,320.5 L160.5,400.5 L80.5,400.5 z" fill-opacity="0" stroke="#737370" stroke-width="2"/>
    </g>
    <g>
      <path d="M160.5,320.5 L240.5,320.5 L240.5,400.5 L160.5,400.5 z" fill="#8FC7ED"/>
      <path d="M160.5,320.5 L240.5,320.5 L240.5,400.5 L160.5,400.5 z" fill-opacity="0" stroke="#737370" stroke-width="2"/>
    </g>
    <g>
      <path d="M240.5,320.5 L320.5,320.5 L320.5,400.5 L240.5,400.5 z" fill="#8FC7ED"/>
      <path d="M240.5,320.5 L320.5,320.5 L320.5,400.5 L240.5,400.5 z" fill-opacity="0" stroke="#737370" stroke-width="2"/>
    </g>
    <g>
      <path d="M320.5,320.5 L400.5,320.5 L400.5,400.5 L320.5,400.5 z" fill="#8FC7ED"/>
      <path d="M320.5,320.5 L400.5,320.5 L400.5,400.5 L320.5,400.5 z" fill-opacity="0" stroke="#737370" stroke-width="2"/>
    </g>
    <g>
      <path d="M400.5,320.5 L480.5,320.5 L480.5,400.5 L400.5,400.5 z" fill="#8FC7ED"/>
      <path d="M400.5,320.5 L480.5,320.5 L480.5,400.5 L400.5,400.5 z" fill-opacity="0" stroke="#737370" stroke-width="2"/>
    </g>
    <g>
      <path d="M80.5,400.5 L160.5,400.5 L160.5,480.5 L80.5,480.5 z" fill="#8FC7ED"/>
      <path d="M80.5,400.5 L160.5,400.5 L160.5,480.5 L80.5,480.5 z" fill-opacity="0" stroke="#737370" stroke-width="2"/>
    </g>
    <g>
      <path d="M160.5,400.5 L240.5,400.5 L240.5,480.5 L160.5,480.5 z" fill="#FABA00"/>
      <path d="M160.5,400.5 L240.5,400.5 L240.5,480.5 L160.5,480.5 z" fill-opacity="0" stroke="#737370" stroke-width="2"/>
    </g>
    <g>
      <path d="M240.5,400.5 L320.5,400.5 L320.5,480.5 L240.5,480.5 z" fill="#8FC7ED"/>
      <path d="M240.5,400.5 L320.5,400.5 L320.5,480.5 L240.5,480.5 z" fill-opacity="0" stroke="#737370" stroke-width="2"/>
    </g>
    <g>
      <path d="M320.5,400.5 L400.5,400.5 L400.5,480.5 L320.5,480.5 z" fill="#FABA00"/>
      <path d="M320.5,400.5 L400.5,400.5 L400.5,480.5 L320.5,480.5 z" fill-opacity="0" stroke="#737370" stroke-width="2"/>
    </g>
    <g>
      <path d="M400.5,400.5 L480.5,400.5 L480.5,480.5 L400.5,480.5 z" fill="#8FC7ED"/>
      <path d="M400.5,400.5 L480.5,400.5 L480.5,480.5 L400.5,480.5 z" fill-opacity="0" stroke="#294270" stroke-width="6" stroke-linejoin="round"/>
    </g>
    <g>
      <text transform="matrix(1, 0, 0, 1, 318.609, 518)">
        <tspan x="-240.934" y="8" font-family="Verdana-Bold" font-size="21" fill="#294270">Matrix: [[0, 0, 5, 4, 0],</tspan>
      </text>
      <text transform="matrix(1, 0, 0, 1, 232.967, 555.5)">
        <tspan x="-155.292" y="-4.5" font-family="Verdana-Bold" font-size="21" fill="#294270">              [0, 1, 5, 0, 0],</tspan>
      </text>
      <text transform="matrix(1, 0, 0, 1, 232.967, 568)">
        <tspan x="-155.292" y="8" font-family="Verdana-Bold" font-size="21" fill="#294270">              [0, 0, 0, 7, 2],</tspan>
      </text>
      <text transform="matrix(1, 0, 0, 1, 232.967, 593)">
        <tspan x="-155.292" y="8" font-family="Verdana-Bold" font-size="21" fill="#294270">              [8, 0, 0, 0, 0],</tspan>
      </text>
      <text transform="matrix(1, 0, 0, 1, 236.414, 618)">
        <tspan x="-158.739" y="8" font-family="Verdana-Bold" font-size="21" fill="#294270">              [0, 9, 0, 1, 0]]</tspan>
      </text>
      <text transform="matrix(1, 0, 0, 1, 201.721, 643)">
        <tspan x="-124.046" y="8" font-family="Verdana-Bold" font-size="21" fill="#294270">From:     [1,1]</tspan>
      </text>
      <text transform="matrix(1, 0, 0, 1, 172.878, 668)">
        <tspan x="-95.203" y="8" font-family="Verdana-Bold" font-size="21" fill="#294270">To:         [5,5]</tspan>
      </text>
      <text transform="matrix(1, 0, 0, 1, 208.199, 718)">
        <tspan x="-130.524" y="8" font-family="Verdana-Bold" font-size="21" fill="#294270">Result: True</tspan>
      </text>
    </g>
    <text transform="matrix(1, 0, 0, 1, 282.562, 364.5)">
      <tspan x="-17.562" y="18.5" font-family="Verdana-Bold" font-size="48" fill="#006DA9">0</tspan>
    </text>
    <text transform="matrix(1, 0, 0, 1, 362.562, 364.5)">
      <tspan x="-17.562" y="18.5" font-family="Verdana-Bold" font-size="48" fill="#006DA9">0</tspan>
    </text>
    <text transform="matrix(1, 0, 0, 1, 442.562, 364.5)">
      <tspan x="-17.562" y="18.5" font-family="Verdana-Bold" font-size="48" fill="#006DA9">0</tspan>
    </text>
    <text transform="matrix(1, 0, 0, 1, 442.562, 434.5)">
      <tspan x="-17.562" y="18.5" font-family="Verdana-Bold" font-size="48" fill="#006DA9">0</tspan>
    </text>
    <text transform="matrix(1, 0, 0, 1, 362.562, 199.5)">
      <tspan x="-17.562" y="18.5" font-family="Verdana-Bold" font-size="48" fill="#006DA9">0</tspan>
    </text>
    <text transform="matrix(1, 0, 0, 1, 442.562, 199.5)">
      <tspan x="-17.562" y="18.5" font-family="Verdana-Bold" font-size="48" fill="#006DA9">0</tspan>
    </text>
    <text transform="matrix(1, 0, 0, 1, 442.562, 119.5)">
      <tspan x="-17.562" y="18.5" font-family="Verdana-Bold" font-size="48" fill="#006DA9">0</tspan>
    </text>
    <text transform="matrix(1, 0, 0, 1, 202.562, 119.5)">
      <tspan x="-17.562" y="18.5" font-family="Verdana-Bold" font-size="48" fill="#006DA9">0</tspan>
    </text>
    <text transform="matrix(1, 0, 0, 1, 122.562, 199.5)">
      <tspan x="-17.562" y="18.5" font-family="Verdana-Bold" font-size="48" fill="#006DA9">0</tspan>
    </text>
    <text transform="matrix(1, 0, 0, 1, 122.562, 439.5)">
      <tspan x="-17.562" y="18.5" font-family="Verdana-Bold" font-size="48" fill="#006DA9">0</tspan>
    </text>
    <text transform="matrix(1, 0, 0, 1, 202.562, 364.5)">
      <tspan x="-17.562" y="18.5" font-family="Verdana-Bold" font-size="48" fill="#006DA9">0</tspan>
    </text>
    <text transform="matrix(1, 0, 0, 1, 282.562, 439.5)">
      <tspan x="-17.562" y="18.5" font-family="Verdana-Bold" font-size="48" fill="#006DA9">0</tspan>
    </text>
    <text transform="matrix(1, 0, 0, 1, 282.562, 284.5)">
      <tspan x="-17.562" y="18.5" font-family="Verdana-Bold" font-size="48" fill="#006DA9">0</tspan>
    </text>
    <text transform="matrix(1, 0, 0, 1, 122.562, 279.5)">
      <tspan x="-17.562" y="18.5" font-family="Verdana-Bold" font-size="48" fill="#006DA9">0</tspan>
    </text>
    <text transform="matrix(1, 0, 0, 1, 202.562, 284.5)">
      <tspan x="-17.562" y="18.5" font-family="Verdana-Bold" font-size="48" fill="#006DA9">0</tspan>
    </text>
    <text transform="matrix(1, 0, 0, 1, 282.562, 119.5)">
      <tspan x="-17.562" y="18.5" font-family="Verdana-Bold" font-size="48" fill="#FA8F00">5</tspan>
    </text>
    <text transform="matrix(1, 0, 0, 1, 362.562, 119.5)">
      <tspan x="-17.562" y="18.5" font-family="Verdana-Bold" font-size="48" fill="#FA8F00">4</tspan>
    </text>
    <text transform="matrix(1, 0, 0, 1, 282.562, 199.5)">
      <tspan x="-17.562" y="18.5" font-family="Verdana-Bold" font-size="48" fill="#FA8F00">5</tspan>
    </text>
    <text transform="matrix(1, 0, 0, 1, 202.562, 199.5)">
      <tspan x="-17.562" y="18.5" font-family="Verdana-Bold" font-size="48" fill="#FA8F00">1</tspan>
    </text>
    <text transform="matrix(1, 0, 0, 1, 362.562, 279.5)">
      <tspan x="-17.562" y="18.5" font-family="Verdana-Bold" font-size="48" fill="#FA8F00">7</tspan>
    </text>
    <text transform="matrix(1, 0, 0, 1, 442.562, 279.5)">
      <tspan x="-17.562" y="18.5" font-family="Verdana-Bold" font-size="48" fill="#FA8F00">2</tspan>
    </text>
    <text transform="matrix(1, 0, 0, 1, 122.563, 364.5)">
      <tspan x="-17.562" y="18.5" font-family="Verdana-Bold" font-size="48" fill="#FA8F00">8</tspan>
    </text>
    <text transform="matrix(1, 0, 0, 1, 202.562, 434.5)">
      <tspan x="-17.562" y="18.5" font-family="Verdana-Bold" font-size="48" fill="#FA8F00">9</tspan>
    </text>
    <text transform="matrix(1, 0, 0, 1, 362.562, 434.5)">
      <tspan x="-17.562" y="18.5" font-family="Verdana-Bold" font-size="48" fill="#FA8F00">1</tspan>
    </text>
    <g>
      <path d="M80.5,80.5 L160.5,80.5 L160.5,160.5 L80.5,160.5 z" fill="#8FC7ED"/>
      <path d="M80.5,80.5 L160.5,80.5 L160.5,160.5 L80.5,160.5 z" fill-opacity="0" stroke="#294270" stroke-width="6" stroke-linejoin="round"/>
    </g>
    <text transform="matrix(1, 0, 0, 1, 122.562, 119.5)">
      <tspan x="-17.562" y="18.5" font-family="Verdana-Bold" font-size="48" fill="#006DA9">0</tspan>
    </text>
    <g>
      <text transform="matrix(1, 0, 0, 1, 980.677, 518)">
        <tspan x="-260.676" y="8" font-family="Verdana-Bold" font-size="21" fill="#294270">Matrix: [[0, 0, 5, 4, 0],</tspan>
      </text>
      <text transform="matrix(1, 0, 0, 1, 888.018, 543)">
        <tspan x="-168.017" y="8" font-family="Verdana-Bold" font-size="21" fill="#294270">              [0, 0, 5, 0, 0],</tspan>
      </text>
      <text transform="matrix(1, 0, 0, 1, 888.018, 568)">
        <tspan x="-168.017" y="8" font-family="Verdana-Bold" font-size="21" fill="#294270">              [0, 0, 0, 7, 2],</tspan>
      </text>
      <text transform="matrix(1, 0, 0, 1, 888.018, 593)">
        <tspan x="-168.017" y="8" font-family="Verdana-Bold" font-size="21" fill="#294270">              [8, 0, 0, 4, 0],</tspan>
      </text>
      <text transform="matrix(1, 0, 0, 1, 891.747, 618)">
        <tspan x="-171.746" y="8" font-family="Verdana-Bold" font-size="21" fill="#294270">              [0, 9, 0, 1, 0]]</tspan>
      </text>
      <text transform="matrix(1, 0, 0, 1, 854.211, 643)">
        <tspan x="-134.21" y="8" font-family="Verdana-Bold" font-size="21" fill="#294270">From:     [1,1]</tspan>
      </text>
      <text transform="matrix(1, 0, 0, 1, 823.005, 668)">
        <tspan x="-103.004" y="8" font-family="Verdana-Bold" font-size="21" fill="#294270">To:         [1,5]</tspan>
      </text>
      <text transform="matrix(1, 0, 0, 1, 868.64, 718)">
        <tspan x="-148.639" y="8" font-family="Verdana-Bold" font-size="21" fill="#294270">Result: False</tspan>
      </text>
    </g>
    <g>
      <path d="M800.5,80.5 L880.5,80.5 L880.5,160.5 L800.5,160.5 z" fill="#8FC7ED"/>
      <path d="M800.5,80.5 L880.5,80.5 L880.5,160.5 L800.5,160.5 z" fill-opacity="0" stroke="#737370" stroke-width="2"/>
    </g>
    <g>
      <path d="M880.5,80.5 L960.5,80.5 L960.5,160.5 L880.5,160.5 z" fill="#FABA00"/>
      <path d="M880.5,80.5 L960.5,80.5 L960.5,160.5 L880.5,160.5 z" fill-opacity="0" stroke="#737370" stroke-width="2"/>
    </g>
    <g>
      <path d="M720.5,160.5 L800.5,160.5 L800.5,240.5 L720.5,240.5 z" fill="#8FC7ED"/>
      <path d="M720.5,160.5 L800.5,160.5 L800.5,240.5 L720.5,240.5 z" fill-opacity="0" stroke="#737370" stroke-width="2"/>
    </g>
    <g>
      <path d="M800.5,160.5 L880.5,160.5 L880.5,240.5 L800.5,240.5 z" fill="#8FC7ED"/>
      <path d="M800.5,160.5 L880.5,160.5 L880.5,240.5 L800.5,240.5 z" fill-opacity="0" stroke="#737370" stroke-width="2"/>
    </g>
    <g>
      <path d="M1040.5,80.5 L1120.5,80.5 L1120.5,160.5 L1040.5,160.5 z" fill="#8FC7ED"/>
      <path d="M1040.5,80.5 L1120.5,80.5 L1120.5,160.5 L1040.5,160.5 z" fill-opacity="0" stroke="#294270" stroke-width="6" stroke-linejoin="bevel"/>
    </g>
    <g>
      <path d="M880.5,160.5 L960.5,160.5 L960.5,240.5 L880.5,240.5 z" fill="#FABA00"/>
      <path d="M880.5,160.5 L960.5,160.5 L960.5,240.5 L880.5,240.5 z" fill-opacity="0" stroke="#737370" stroke-width="2"/>
    </g>
    <g>
      <path d="M720.5,240.5 L800.5,240.5 L800.5,320.5 L720.5,320.5 z" fill="#8FC7ED"/>
      <path d="M720.5,240.5 L800.5,240.5 L800.5,320.5 L720.5,320.5 z" fill-opacity="0" stroke="#737370" stroke-width="2"/>
    </g>
    <g>
      <path d="M800.5,240.5 L880.5,240.5 L880.5,320.5 L800.5,320.5 z" fill="#8FC7ED"/>
      <path d="M800.5,240.5 L880.5,240.5 L880.5,320.5 L800.5,320.5 z" fill-opacity="0" stroke="#737370" stroke-width="2"/>
    </g>
    <g>
      <path d="M880.5,240.5 L960.5,240.5 L960.5,320.5 L880.5,320.5 z" fill="#8FC7ED"/>
      <path d="M880.5,240.5 L960.5,240.5 L960.5,320.5 L880.5,320.5 z" fill-opacity="0" stroke="#737370" stroke-width="2"/>
    </g>
    <g>
      <path d="M960.5,240.5 L1040.5,240.5 L1040.5,320.5 L960.5,320.5 z" fill="#FABA00"/>
      <path d="M960.5,240.5 L1040.5,240.5 L1040.5,320.5 L960.5,320.5 z" fill-opacity="0" stroke="#737370" stroke-width="2"/>
    </g>
    <g>
      <path d="M1040.5,240.5 L1120.5,240.5 L1120.5,320.5 L1040.5,320.5 z" fill="#FABA00"/>
      <path d="M1040.5,240.5 L1120.5,240.5 L1120.5,320.5 L1040.5,320.5 z" fill-opacity="0" stroke="#737370" stroke-width="2"/>
    </g>
    <g>
      <path d="M720.5,320.5 L800.5,320.5 L800.5,400.5 L720.5,400.5 z" fill="#FABA00"/>
      <path d="M720.5,320.5 L800.5,320.5 L800.5,400.5 L720.5,400.5 z" fill-opacity="0" stroke="#737370" stroke-width="2"/>
    </g>
    <g>
      <path d="M800.5,320.5 L880.5,320.5 L880.5,400.5 L800.5,400.5 z" fill="#8FC7ED"/>
      <path d="M800.5,320.5 L880.5,320.5 L880.5,400.5 L800.5,400.5 z" fill-opacity="0" stroke="#737370" stroke-width="2"/>
    </g>
    <g>
      <path d="M880.5,320.5 L960.5,320.5 L960.5,400.5 L880.5,400.5 z" fill="#8FC7ED"/>
      <path d="M880.5,320.5 L960.5,320.5 L960.5,400.5 L880.5,400.5 z" fill-opacity="0" stroke="#737370" stroke-width="2"/>
    </g>
    <g>
      <path d="M960.5,320.5 L1040.5,320.5 L1040.5,400.5 L960.5,400.5 z" fill="#FABA00"/>
      <path d="M960.5,320.5 L1040.5,320.5 L1040.5,400.5 L960.5,400.5 z" fill-opacity="0" stroke="#737370" stroke-width="2"/>
    </g>
    <g>
      <path d="M1040.5,320.5 L1120.5,320.5 L1120.5,400.5 L1040.5,400.5 z" fill="#8FC7ED"/>
      <path d="M1040.5,320.5 L1120.5,320.5 L1120.5,400.5 L1040.5,400.5 z" fill-opacity="0" stroke="#737370" stroke-width="2"/>
    </g>
    <g>
      <path d="M720.5,400.5 L800.5,400.5 L800.5,480.5 L720.5,480.5 z" fill="#8FC7ED"/>
      <path d="M720.5,400.5 L800.5,400.5 L800.5,480.5 L720.5,480.5 z" fill-opacity="0" stroke="#737370" stroke-width="2"/>
    </g>
    <g>
      <path d="M800.5,400.5 L880.5,400.5 L880.5,480.5 L800.5,480.5 z" fill="#FABA00"/>
      <path d="M800.5,400.5 L880.5,400.5 L880.5,480.5 L800.5,480.5 z" fill-opacity="0" stroke="#737370" stroke-width="2"/>
    </g>
    <g>
      <path d="M880.5,400.5 L960.5,400.5 L960.5,480.5 L880.5,480.5 z" fill="#8FC7ED"/>
      <path d="M880.5,400.5 L960.5,400.5 L960.5,480.5 L880.5,480.5 z" fill-opacity="0" stroke="#737370" stroke-width="2"/>
    </g>
    <g>
      <path d="M960.5,400.5 L1040.5,400.5 L1040.5,480.5 L960.5,480.5 z" fill="#FABA00"/>
      <path d="M960.5,400.5 L1040.5,400.5 L1040.5,480.5 L960.5,480.5 z" fill-opacity="0" stroke="#737370" stroke-width="2"/>
    </g>
    <g>
      <path d="M1040.5,400.5 L1120.5,400.5 L1120.5,480.5 L1040.5,480.5 z" fill="#8FC7ED"/>
      <path d="M1040.5,400.5 L1120.5,400.5 L1120.5,480.5 L1040.5,480.5 z" fill-opacity="0" stroke="#737370" stroke-width="2" stroke-linejoin="round"/>
    </g>
    <text transform="matrix(1, 0, 0, 1, 922.562, 364.5)">
      <tspan x="-17.562" y="18.5" font-family="Verdana-Bold" font-size="48" fill="#006DA9">0</tspan>
    </text>
    <text transform="matrix(1, 0, 0, 1, 1002.562, 364.5)">
      <tspan x="-17.562" y="18.5" font-family="Verdana-Bold" font-size="48" fill="#FA8F00">4</tspan>
    </text>
    <text transform="matrix(1, 0, 0, 1, 1082.562, 364.5)">
      <tspan x="-17.562" y="18.5" font-family="Verdana-Bold" font-size="48" fill="#006DA9">0</tspan>
    </text>
    <text transform="matrix(1, 0, 0, 1, 1082.562, 434.5)">
      <tspan x="-17.562" y="18.5" font-family="Verdana-Bold" font-size="48" fill="#006DA9">0</tspan>
    </text>
    <text transform="matrix(1, 0, 0, 1, 1002.562, 199.5)">
      <tspan x="-17.562" y="18.5" font-family="Verdana-Bold" font-size="48" fill="#006DA9">0</tspan>
    </text>
    <text transform="matrix(1, 0, 0, 1, 1082.562, 199.5)">
      <tspan x="-17.562" y="18.5" font-family="Verdana-Bold" font-size="48" fill="#006DA9">0</tspan>
    </text>
    <text transform="matrix(1, 0, 0, 1, 842.562, 119.5)">
      <tspan x="-17.562" y="18.5" font-family="Verdana-Bold" font-size="48" fill="#006DA9">0</tspan>
    </text>
    <text transform="matrix(1, 0, 0, 1, 762.562, 199.5)">
      <tspan x="-17.562" y="18.5" font-family="Verdana-Bold" font-size="48" fill="#006DA9">0</tspan>
    </text>
    <text transform="matrix(1, 0, 0, 1, 762.562, 439.5)">
      <tspan x="-17.562" y="18.5" font-family="Verdana-Bold" font-size="48" fill="#006DA9">0</tspan>
    </text>
    <text transform="matrix(1, 0, 0, 1, 842.562, 364.5)">
      <tspan x="-17.562" y="18.5" font-family="Verdana-Bold" font-size="48" fill="#006DA9">0</tspan>
    </text>
    <text transform="matrix(1, 0, 0, 1, 922.562, 439.5)">
      <tspan x="-17.562" y="18.5" font-family="Verdana-Bold" font-size="48" fill="#006DA9">0</tspan>
    </text>
    <text transform="matrix(1, 0, 0, 1, 922.562, 284.5)">
      <tspan x="-17.562" y="18.5" font-family="Verdana-Bold" font-size="48" fill="#006DA9">0</tspan>
    </text>
    <text transform="matrix(1, 0, 0, 1, 762.562, 279.5)">
      <tspan x="-17.562" y="18.5" font-family="Verdana-Bold" font-size="48" fill="#006DA9">0</tspan>
    </text>
    <text transform="matrix(1, 0, 0, 1, 842.562, 284.5)">
      <tspan x="-17.562" y="18.5" font-family="Verdana-Bold" font-size="48" fill="#006DA9">0</tspan>
    </text>
    <text transform="matrix(1, 0, 0, 1, 922.562, 119.5)">
      <tspan x="-17.562" y="18.5" font-family="Verdana-Bold" font-size="48" fill="#FA8F00">5</tspan>
    </text>
    <text transform="matrix(1, 0, 0, 1, 1002.562, 119.5)">
      <tspan x="-17.562" y="18.5" font-family="Verdana-Bold" font-size="48" fill="#FA8F00">4</tspan>
    </text>
    <text transform="matrix(1, 0, 0, 1, 922.562, 199.5)">
      <tspan x="-17.562" y="18.5" font-family="Verdana-Bold" font-size="48" fill="#FA8F00">6</tspan>
    </text>
    <text transform="matrix(1, 0, 0, 1, 842.562, 199.5)">
      <tspan x="-17.562" y="18.5" font-family="Verdana-Bold" font-size="48" fill="#006DA9">0</tspan>
    </text>
    <text transform="matrix(1, 0, 0, 1, 1002.562, 279.5)">
      <tspan x="-17.562" y="18.5" font-family="Verdana-Bold" font-size="48" fill="#FA8F00">7</tspan>
    </text>
    <text transform="matrix(1, 0, 0, 1, 1082.562, 279.5)">
      <tspan x="-17.562" y="18.5" font-family="Verdana-Bold" font-size="48" fill="#FA8F00">2</tspan>
    </text>
    <text transform="matrix(1, 0, 0, 1, 762.562, 364.5)">
      <tspan x="-17.562" y="18.5" font-family="Verdana-Bold" font-size="48" fill="#FA8F00">8</tspan>
    </text>
    <text transform="matrix(1, 0, 0, 1, 842.562, 434.5)">
      <tspan x="-17.562" y="18.5" font-family="Verdana-Bold" font-size="48" fill="#FA8F00">9</tspan>
    </text>
    <text transform="matrix(1, 0, 0, 1, 1002.562, 434.5)">
      <tspan x="-17.562" y="18.5" font-family="Verdana-Bold" font-size="48" fill="#FA8F00">1</tspan>
    </text>
    <g>
      <path d="M720.5,80.5 L800.5,80.5 L800.5,160.5 L720.5,160.5 z" fill="#8FC7ED"/>
      <path d="M720.5,80.5 L800.5,80.5 L800.5,160.5 L720.5,160.5 z" fill-opacity="0" stroke="#294270" stroke-width="6" stroke-linejoin="round"/>
    </g>
    <text transform="matrix(1, 0, 0, 1, 762.562, 119.5)">
      <tspan x="-17.562" y="18.5" font-family="Verdana-Bold" font-size="48" fill="#006DA9">0</tspan>
    </text>
    <text transform="matrix(1, 0, 0, 1, 1082.562, 119.5)">
      <tspan x="-17.562" y="18.5" font-family="Verdana-Bold" font-size="48" fill="#006DA9">0</tspan>
    </text>
  </g>
  <defs/>
</svg>
