<?xml version="1.0" encoding="utf-8"?>
<!-- Generator: Adobe Illustrator 18.0.0, SVG Export Plug-In . SVG Version: 6.00 Build 0)  -->
<!DOCTYPE svg PUBLIC "-//W3C//DTD SVG 1.1//EN" "http://www.w3.org/Graphics/SVG/1.1/DTD/svg11.dtd">
<svg version="1.1" id="Layer_1" xmlns="http://www.w3.org/2000/svg" xmlns:xlink="http://www.w3.org/1999/xlink" x="0px" y="0px"
	 viewBox="0 0 430 300" enable-background="new 0 0 430 300" xml:space="preserve">
<rect x="76.2" y="99" fill="#65A1CF" stroke="#294270" stroke-width="1.5355" stroke-miterlimit="10" width="30.8" height="30.7"/>
<rect x="76.2" y="68.4" fill="#8FC7ED" stroke="#294270" stroke-width="1.5355" stroke-miterlimit="10" width="30.8" height="30.7"/>
<rect x="107" y="68.4" fill="#8FC7ED" stroke="#294270" stroke-width="1.5355" stroke-miterlimit="10" width="30.8" height="30.7"/>
<rect x="107" y="99" fill="#FABA00" stroke="#294270" stroke-width="1.5355" stroke-miterlimit="10" width="30.8" height="30.7"/>
<rect x="137.7" y="99" fill="#8FC7ED" stroke="#294270" stroke-width="1.5355" stroke-miterlimit="10" width="30.8" height="30.7"/>
<rect x="137.7" y="68.4" fill="#8FC7ED" stroke="#294270" stroke-width="1.5355" stroke-miterlimit="10" width="30.8" height="30.7"/>
<rect x="168.5" y="68.4" fill="#FABA00" stroke="#294270" stroke-width="1.5355" stroke-miterlimit="10" width="30.8" height="30.7"/>
<rect x="168.5" y="99" fill="#FABA00" stroke="#294270" stroke-width="1.5355" stroke-miterlimit="10" width="30.8" height="30.7"/>
<rect x="14.7" y="99" fill="#8FC7ED" stroke="#294270" stroke-width="1.5355" stroke-miterlimit="10" width="30.8" height="30.7"/>
<rect x="14.7" y="68.4" fill="#8FC7ED" stroke="#294270" stroke-width="1.5355" stroke-miterlimit="10" width="30.8" height="30.7"/>
<rect x="45.4" y="68.4" fill="#FABA00" stroke="#294270" stroke-width="1.5355" stroke-miterlimit="10" width="30.8" height="30.7"/>
<rect x="45.4" y="99" fill="#FABA00" stroke="#294270" stroke-width="1.5355" stroke-miterlimit="10" width="30.8" height="30.7"/>
<rect x="14.7" y="37.7" fill="#8FC7ED" stroke="#294270" stroke-width="1.5355" stroke-miterlimit="10" width="30.8" height="30.7"/>
<rect x="14.7" y="7.1" fill="#8FC7ED" stroke="#294270" stroke-width="1.5355" stroke-miterlimit="10" width="30.8" height="30.7"/>
<rect x="45.4" y="7.1" fill="#8FC7ED" stroke="#294270" stroke-width="1.5355" stroke-miterlimit="10" width="30.8" height="30.7"/>
<rect x="45.4" y="37.7" fill="#FABA00" stroke="#294270" stroke-width="1.5355" stroke-miterlimit="10" width="30.8" height="30.7"/>
<rect x="76.2" y="37.7" fill="#FABA00" stroke="#294270" stroke-width="1.5355" stroke-miterlimit="10" width="30.8" height="30.7"/>
<rect x="76.2" y="7.1" fill="#8FC7ED" stroke="#294270" stroke-width="1.5355" stroke-miterlimit="10" width="30.8" height="30.7"/>
<rect x="107" y="7.1" fill="#8FC7ED" stroke="#294270" stroke-width="1.5355" stroke-miterlimit="10" width="30.8" height="30.7"/>
<rect x="107" y="37.7" fill="#FABA00" stroke="#294270" stroke-width="1.5355" stroke-miterlimit="10" width="30.8" height="30.7"/>
<rect x="137.7" y="37.7" fill="#FABA00" stroke="#294270" stroke-width="1.5355" stroke-miterlimit="10" width="30.8" height="30.7"/>
<rect x="137.7" y="7.1" fill="#8FC7ED" stroke="#294270" stroke-width="1.5355" stroke-miterlimit="10" width="30.8" height="30.7"/>
<rect x="168.5" y="7.1" fill="#65A1CF" stroke="#294270" stroke-width="1.5355" stroke-miterlimit="10" width="30.8" height="30.7"/>
<rect x="168.5" y="37.7" fill="#FABA00" stroke="#294270" stroke-width="1.5355" stroke-miterlimit="10" width="30.8" height="30.7"/>
<line fill="#FFFFFF" stroke="#294270" stroke-width="1.5355" stroke-miterlimit="10" x1="76.2" y1="221.6" x2="107" y2="221.6"/>
<rect x="76.2" y="191" fill="#FABA00" stroke="#294270" stroke-width="1.5355" stroke-miterlimit="10" width="30.8" height="30.7"/>
<rect x="107" y="191" fill="#FABA00" stroke="#294270" stroke-width="1.5355" stroke-miterlimit="10" width="30.8" height="30.7"/>
<line fill="#FFFFFF" stroke="#294270" stroke-width="1.5355" stroke-miterlimit="10" x1="107" y1="221.6" x2="137.7" y2="221.6"/>
<line fill="#FFFFFF" stroke="#294270" stroke-width="1.5355" stroke-miterlimit="10" x1="137.7" y1="221.6" x2="168.5" y2="221.6"/>
<rect x="137.7" y="191" fill="#FABA00" stroke="#294270" stroke-width="1.5355" stroke-miterlimit="10" width="30.8" height="30.7"/>
<rect x="168.5" y="191" fill="#FABA00" stroke="#294270" stroke-width="1.5355" stroke-miterlimit="10" width="30.8" height="30.7"/>
<line fill="#FFFFFF" stroke="#294270" stroke-width="1.5355" stroke-miterlimit="10" x1="168.5" y1="221.6" x2="199.3" y2="221.6"/>
<line fill="#FFFFFF" stroke="#294270" stroke-width="1.5355" stroke-miterlimit="10" x1="14.7" y1="221.6" x2="45.4" y2="221.6"/>
<rect x="14.7" y="191" fill="#FABA00" stroke="#294270" stroke-width="1.5355" stroke-miterlimit="10" width="30.8" height="30.7"/>
<rect x="45.4" y="191" fill="#FABA00" stroke="#294270" stroke-width="1.5355" stroke-miterlimit="10" width="30.8" height="30.7"/>
<line fill="#FFFFFF" stroke="#294270" stroke-width="1.5355" stroke-miterlimit="10" x1="45.4" y1="221.6" x2="76.2" y2="221.6"/>
<rect x="14.7" y="160.3" fill="#8FC7ED" stroke="#294270" stroke-width="1.5355" stroke-miterlimit="10" width="30.8" height="30.7"/>
<rect x="14.7" y="129.7" fill="#8FC7ED" stroke="#294270" stroke-width="1.5355" stroke-miterlimit="10" width="30.8" height="30.7"/>
<rect x="45.4" y="129.7" fill="#FABA00" stroke="#294270" stroke-width="1.5355" stroke-miterlimit="10" width="30.8" height="30.7"/>
<rect x="45.4" y="160.3" fill="#8FC7ED" stroke="#294270" stroke-width="1.5355" stroke-miterlimit="10" width="30.8" height="30.7"/>
<rect x="76.2" y="160.3" fill="#8FC7ED" stroke="#294270" stroke-width="1.5355" stroke-miterlimit="10" width="30.8" height="30.7"/>
<rect x="76.2" y="129.7" fill="#FABA00" stroke="#294270" stroke-width="1.5355" stroke-miterlimit="10" width="30.8" height="30.7"/>
<rect x="107" y="129.7" fill="#FABA00" stroke="#294270" stroke-width="1.5355" stroke-miterlimit="10" width="30.8" height="30.7"/>
<rect x="107" y="160.3" fill="#8FC7ED" stroke="#294270" stroke-width="1.5355" stroke-miterlimit="10" width="30.8" height="30.7"/>
<rect x="137.7" y="160.3" fill="#8FC7ED" stroke="#294270" stroke-width="1.5355" stroke-miterlimit="10" width="30.8" height="30.7"/>
<rect x="137.7" y="129.7" fill="#8FC7ED" stroke="#294270" stroke-width="1.5355" stroke-miterlimit="10" width="30.8" height="30.7"/>
<rect x="168.5" y="129.7" fill="#FABA00" stroke="#294270" stroke-width="1.5355" stroke-miterlimit="10" width="30.8" height="30.7"/>
<rect x="168.5" y="160.3" fill="#FABA00" stroke="#294270" stroke-width="1.5355" stroke-miterlimit="10" width="30.8" height="30.7"/>
<text transform="matrix(1.0038 0 0 1 145.4356 124.5451)" fill="#294270" font-family="'Roboto-Bold'" font-size="27.5862">0</text>
<text transform="matrix(1.0038 0 0 1 145.4346 185.8488)" fill="#294270" font-family="'Roboto-Bold'" font-size="27.5862">0</text>
<text transform="matrix(1.0038 0 0 1 145.4346 155.1975)" fill="#294270" font-family="'Roboto-Bold'" font-size="27.5862">0</text>
<text transform="matrix(1.0038 0 0 1 114.6661 93.8938)" fill="#294270" font-family="'Roboto-Bold'" font-size="27.5862">0</text>
<text transform="matrix(1.0038 0 0 1 83.8955 93.8938)" fill="#294270" font-family="'Roboto-Bold'" font-size="27.5862">0</text>
<text transform="matrix(1.0038 0 0 1 83.8955 124.5451)" fill="#294270" font-family="'Roboto-Bold'" font-size="27.5862">0</text>
<text transform="matrix(1.0038 0 0 1 22.3575 155.1975)" fill="#294270" font-family="'Roboto-Bold'" font-size="27.5862">0</text>
<text transform="matrix(1.0038 0 0 1 22.3575 185.8488)" fill="#294270" font-family="'Roboto-Bold'" font-size="27.5862">0</text>
<text transform="matrix(1.0038 0 0 1 53.128 185.8488)" fill="#294270" font-family="'Roboto-Bold'" font-size="27.5862">0</text>
<text transform="matrix(1.0038 0 0 1 83.8955 185.8488)" fill="#294270" font-family="'Roboto-Bold'" font-size="27.5862">0</text>
<text transform="matrix(1.0038 0 0 1 114.6661 185.8488)" fill="#294270" font-family="'Roboto-Bold'" font-size="27.5862">0</text>
<text transform="matrix(1.0038 0 0 1 145.4346 93.8938)" fill="#294270" font-family="'Roboto-Bold'" font-size="27.5862">0</text>
<text transform="matrix(1.0038 0 0 1 22.3575 93.8938)" fill="#294270" font-family="'Roboto-Bold'" font-size="27.5862">0</text>
<text transform="matrix(1.0038 0 0 1 22.3575 124.5451)" fill="#294270" font-family="'Roboto-Bold'" font-size="27.5862">0</text>
<text transform="matrix(1.0038 0 0 1 22.3575 32.59)" fill="#294270" font-family="'Roboto-Bold'" font-size="27.5862">0</text>
<text transform="matrix(1.0038 0 0 1 22.3575 63.2414)" fill="#294270" font-family="'Roboto-Bold'" font-size="27.5862">0</text>
<text transform="matrix(1.0038 0 0 1 176.2041 32.591)" fill="#294270" font-family="'Roboto-Bold'" font-size="27.5862">0</text>
<text transform="matrix(1.0038 0 0 1 53.128 32.59)" fill="#294270" font-family="'Roboto-Bold'" font-size="27.5862">0</text>
<text transform="matrix(1.0038 0 0 1 83.8955 32.59)" fill="#294270" font-family="'Roboto-Bold'" font-size="27.5862">0</text>
<text transform="matrix(1.0038 0 0 1 114.6661 32.59)" fill="#294270" font-family="'Roboto-Bold'" font-size="27.5862">0</text>
<text transform="matrix(1.0038 0 0 1 145.4346 32.59)" fill="#294270" font-family="'Roboto-Bold'" font-size="27.5862">0</text>
<text transform="matrix(1.0038 0 0 1 114.6661 124.5451)" fill="#294270" font-family="'Roboto-Bold'" font-size="27.5862">2</text>
<text transform="matrix(1.0038 0 0 1 114.6661 155.1975)" fill="#294270" font-family="'Roboto-Bold'" font-size="27.5862">2</text>
<text transform="matrix(1.0038 0 0 1 83.8946 155.1975)" fill="#294270" font-family="'Roboto-Bold'" font-size="27.5862">2</text>
<text transform="matrix(1.0038 0 0 1 53.128 155.1975)" fill="#294270" font-family="'Roboto-Bold'" font-size="27.5862">2</text>
<text transform="matrix(1.0038 0 0 1 114.6661 63.2414)" fill="#294270" font-family="'Roboto-Bold'" font-size="27.5862">2</text>
<text transform="matrix(1.0038 0 0 1 83.8946 63.2414)" fill="#294270" font-family="'Roboto-Bold'" font-size="27.5862">2</text>
<text transform="matrix(1.0038 0 0 1 53.128 63.2414)" fill="#294270" font-family="'Roboto-Bold'" font-size="27.5862">2</text>
<text transform="matrix(1.0038 0 0 1 83.8946 216.5012)" fill="#294270" font-family="'Roboto-Bold'" font-size="27.5862">2</text>
<text transform="matrix(1.0038 0 0 1 53.128 216.5012)" fill="#294270" font-family="'Roboto-Bold'" font-size="27.5862">2</text>
<text transform="matrix(1.0038 0 0 1 22.3575 216.5012)" fill="#294270" font-family="'Roboto-Bold'" font-size="27.5862">2</text>
<text transform="matrix(1.0038 0 0 1 176.2032 216.5012)" fill="#294270" font-family="'Roboto-Bold'" font-size="27.5862">2</text>
<text transform="matrix(1.0038 0 0 1 145.4346 216.5012)" fill="#294270" font-family="'Roboto-Bold'" font-size="27.5862">2</text>
<text transform="matrix(1.0038 0 0 1 114.6661 216.5012)" fill="#294270" font-family="'Roboto-Bold'" font-size="27.5862">2</text>
<text transform="matrix(1.0038 0 0 1 53.128 124.5451)" fill="#294270" font-family="'Roboto-Bold'" font-size="27.5862">2</text>
<text transform="matrix(1.0038 0 0 1 53.128 93.8938)" fill="#294270" font-family="'Roboto-Bold'" font-size="27.5862">2</text>
<text transform="matrix(1.0038 0 0 1 176.2032 185.8498)" fill="#294270" font-family="'Roboto-Bold'" font-size="27.5862">2</text>
<text transform="matrix(1.0038 0 0 1 176.2032 93.8938)" fill="#294270" font-family="'Roboto-Bold'" font-size="27.5862">2</text>
<text transform="matrix(1.0038 0 0 1 176.2032 155.1975)" fill="#294270" font-family="'Roboto-Bold'" font-size="27.5862">2</text>
<text transform="matrix(1.0038 0 0 1 176.2032 124.5451)" fill="#294270" font-family="'Roboto-Bold'" font-size="27.5862">2</text>
<text transform="matrix(1.0038 0 0 1 176.2032 63.2414)" fill="#294270" font-family="'Roboto-Bold'" font-size="27.5862">2</text>
<text transform="matrix(1.0038 0 0 1 145.4346 63.2414)" fill="#294270" font-family="'Roboto-Bold'" font-size="27.5862">3</text>
<text transform="matrix(1.0038 0 0 1 63.3843 244.5959)"><tspan x="0" y="0" fill="#294270" font-family="'Roboto-Bold'" font-size="18.3908">first: (3, 2)</tspan><tspan x="-13" y="22.1" fill="#294270" font-family="'Roboto-Bold'" font-size="18.3908">second: (0, 5)</tspan><tspan x="-3.7" y="44.1" fill="#294270" font-family="'Roboto-Bold'" font-size="18.3908">result: True</tspan></text>
<rect x="291.6" y="99" fill="#FABA00" stroke="#294270" stroke-width="1.5355" stroke-miterlimit="10" width="30.8" height="30.7"/>
<rect x="291.6" y="68.4" fill="#FABA00" stroke="#294270" stroke-width="1.5355" stroke-miterlimit="10" width="30.8" height="30.7"/>
<rect x="322.4" y="68.4" fill="#FABA00" stroke="#294270" stroke-width="1.5355" stroke-miterlimit="10" width="30.8" height="30.7"/>
<rect x="322.4" y="99" fill="#65A1CF" stroke="#294270" stroke-width="1.5355" stroke-miterlimit="10" width="30.8" height="30.7"/>
<rect x="353.1" y="99" fill="#FABA00" stroke="#294270" stroke-width="1.5355" stroke-miterlimit="10" width="30.8" height="30.7"/>
<rect x="353.1" y="68.4" fill="#FABA00" stroke="#294270" stroke-width="1.5355" stroke-miterlimit="10" width="30.8" height="30.7"/>
<rect x="383.9" y="68.4" fill="#8FC7ED" stroke="#294270" stroke-width="1.5355" stroke-miterlimit="10" width="30.8" height="30.7"/>
<rect x="383.9" y="99" fill="#8FC7ED" stroke="#294270" stroke-width="1.5355" stroke-miterlimit="10" width="30.8" height="30.7"/>
<rect x="230.1" y="99" fill="#FABA00" stroke="#294270" stroke-width="1.5355" stroke-miterlimit="10" width="30.8" height="30.7"/>
<rect x="230.1" y="68.4" fill="#FABA00" stroke="#294270" stroke-width="1.5355" stroke-miterlimit="10" width="30.8" height="30.7"/>
<rect x="260.8" y="68.4" fill="#8FC7ED" stroke="#294270" stroke-width="1.5355" stroke-miterlimit="10" width="30.8" height="30.7"/>
<rect x="260.8" y="99" fill="#8FC7ED" stroke="#294270" stroke-width="1.5355" stroke-miterlimit="10" width="30.8" height="30.7"/>
<rect x="230.1" y="37.7" fill="#FABA00" stroke="#294270" stroke-width="1.5355" stroke-miterlimit="10" width="30.8" height="30.7"/>
<rect x="230.1" y="7.1" fill="#FABA00" stroke="#294270" stroke-width="1.5355" stroke-miterlimit="10" width="30.8" height="30.7"/>
<rect x="260.8" y="7.1" fill="#FABA00" stroke="#294270" stroke-width="1.5355" stroke-miterlimit="10" width="30.8" height="30.7"/>
<rect x="260.8" y="37.7" fill="#8FC7ED" stroke="#294270" stroke-width="1.5355" stroke-miterlimit="10" width="30.8" height="30.7"/>
<rect x="291.6" y="37.7" fill="#8FC7ED" stroke="#294270" stroke-width="1.5355" stroke-miterlimit="10" width="30.8" height="30.7"/>
<rect x="291.6" y="7.1" fill="#FABA00" stroke="#294270" stroke-width="1.5355" stroke-miterlimit="10" width="30.8" height="30.7"/>
<rect x="322.4" y="7.1" fill="#FABA00" stroke="#294270" stroke-width="1.5355" stroke-miterlimit="10" width="30.8" height="30.7"/>
<rect x="322.4" y="37.7" fill="#8FC7ED" stroke="#294270" stroke-width="1.5355" stroke-miterlimit="10" width="30.8" height="30.7"/>
<rect x="353.1" y="37.7" fill="#FABA00" stroke="#294270" stroke-width="1.5355" stroke-miterlimit="10" width="30.8" height="30.7"/>
<rect x="353.1" y="7.1" fill="#FABA00" stroke="#294270" stroke-width="1.5355" stroke-miterlimit="10" width="30.8" height="30.7"/>
<rect x="383.9" y="7.1" fill="#FABA00" stroke="#294270" stroke-width="1.5355" stroke-miterlimit="10" width="30.8" height="30.7"/>
<rect x="383.9" y="37.7" fill="#8FC7ED" stroke="#294270" stroke-width="1.5355" stroke-miterlimit="10" width="30.8" height="30.7"/>
<line fill="#FFFFFF" stroke="#294270" stroke-width="1.5355" stroke-miterlimit="10" x1="291.6" y1="221.6" x2="322.4" y2="221.6"/>
<rect x="291.6" y="191" fill="#8FC7ED" stroke="#294270" stroke-width="1.5355" stroke-miterlimit="10" width="30.8" height="30.7"/>
<rect x="322.4" y="191" fill="#8FC7ED" stroke="#294270" stroke-width="1.5355" stroke-miterlimit="10" width="30.8" height="30.7"/>
<line fill="#FFFFFF" stroke="#294270" stroke-width="1.5355" stroke-miterlimit="10" x1="322.4" y1="221.6" x2="353.1" y2="221.6"/>
<line fill="#FFFFFF" stroke="#294270" stroke-width="1.5355" stroke-miterlimit="10" x1="353.1" y1="221.6" x2="383.9" y2="221.6"/>
<rect x="353.1" y="191" fill="#8FC7ED" stroke="#294270" stroke-width="1.5355" stroke-miterlimit="10" width="30.8" height="30.7"/>
<rect x="383.9" y="191" fill="#8FC7ED" stroke="#294270" stroke-width="1.5355" stroke-miterlimit="10" width="30.8" height="30.7"/>
<line fill="#FFFFFF" stroke="#294270" stroke-width="1.5355" stroke-miterlimit="10" x1="383.9" y1="221.6" x2="414.7" y2="221.6"/>
<line fill="#FFFFFF" stroke="#294270" stroke-width="1.5355" stroke-miterlimit="10" x1="230.1" y1="221.6" x2="260.8" y2="221.6"/>
<rect x="230.1" y="191" fill="#65A1CF" stroke="#294270" stroke-width="1.5355" stroke-miterlimit="10" width="30.8" height="30.7"/>
<rect x="260.8" y="191" fill="#8FC7ED" stroke="#294270" stroke-width="1.5355" stroke-miterlimit="10" width="30.8" height="30.7"/>
<line fill="#FFFFFF" stroke="#294270" stroke-width="1.5355" stroke-miterlimit="10" x1="260.8" y1="221.6" x2="291.6" y2="221.6"/>
<rect x="230.1" y="160.3" fill="#FABA00" stroke="#294270" stroke-width="1.5355" stroke-miterlimit="10" width="30.8" height="30.7"/>
<rect x="230.1" y="129.7" fill="#FABA00" stroke="#294270" stroke-width="1.5355" stroke-miterlimit="10" width="30.8" height="30.7"/>
<rect x="260.8" y="129.7" fill="#8FC7ED" stroke="#294270" stroke-width="1.5355" stroke-miterlimit="10" width="30.8" height="30.7"/>
<rect x="260.8" y="160.3" fill="#FABA00" stroke="#294270" stroke-width="1.5355" stroke-miterlimit="10" width="30.8" height="30.7"/>
<rect x="291.6" y="160.3" fill="#FABA00" stroke="#294270" stroke-width="1.5355" stroke-miterlimit="10" width="30.8" height="30.7"/>
<rect x="291.6" y="129.7" fill="#8FC7ED" stroke="#294270" stroke-width="1.5355" stroke-miterlimit="10" width="30.8" height="30.7"/>
<rect x="322.4" y="129.7" fill="#8FC7ED" stroke="#294270" stroke-width="1.5355" stroke-miterlimit="10" width="30.8" height="30.7"/>
<rect x="322.4" y="160.3" fill="#FABA00" stroke="#294270" stroke-width="1.5355" stroke-miterlimit="10" width="30.8" height="30.7"/>
<rect x="353.1" y="160.3" fill="#FABA00" stroke="#294270" stroke-width="1.5355" stroke-miterlimit="10" width="30.8" height="30.7"/>
<rect x="353.1" y="129.7" fill="#FABA00" stroke="#294270" stroke-width="1.5355" stroke-miterlimit="10" width="30.8" height="30.7"/>
<rect x="383.9" y="129.7" fill="#8FC7ED" stroke="#294270" stroke-width="1.5355" stroke-miterlimit="10" width="30.8" height="30.7"/>
<rect x="383.9" y="160.3" fill="#8FC7ED" stroke="#294270" stroke-width="1.5355" stroke-miterlimit="10" width="30.8" height="30.7"/>
<text transform="matrix(1.0038 0 0 1 360.8194 124.5451)" fill="#294270" font-family="'Roboto-Bold'" font-size="27.5862">0</text>
<text transform="matrix(1.0038 0 0 1 360.8194 185.8488)" fill="#294270" font-family="'Roboto-Bold'" font-size="27.5862">0</text>
<text transform="matrix(1.0038 0 0 1 360.8194 155.1975)" fill="#294270" font-family="'Roboto-Bold'" font-size="27.5862">0</text>
<text transform="matrix(1.0038 0 0 1 330.0518 93.8938)" fill="#294270" font-family="'Roboto-Bold'" font-size="27.5862">0</text>
<text transform="matrix(1.0038 0 0 1 299.2813 93.8938)" fill="#294270" font-family="'Roboto-Bold'" font-size="27.5862">0</text>
<text transform="matrix(1.0038 0 0 1 299.2813 124.5451)" fill="#294270" font-family="'Roboto-Bold'" font-size="27.5862">0</text>
<text transform="matrix(1.0038 0 0 1 237.7432 155.1975)" fill="#294270" font-family="'Roboto-Bold'" font-size="27.5862">0</text>
<text transform="matrix(1.0038 0 0 1 237.7432 185.8488)" fill="#294270" font-family="'Roboto-Bold'" font-size="27.5862">0</text>
<text transform="matrix(1.0038 0 0 1 268.5117 185.8488)" fill="#294270" font-family="'Roboto-Bold'" font-size="27.5862">0</text>
<text transform="matrix(1.0038 0 0 1 299.2813 185.8488)" fill="#294270" font-family="'Roboto-Bold'" font-size="27.5862">0</text>
<text transform="matrix(1.0038 0 0 1 330.0508 185.8488)" fill="#294270" font-family="'Roboto-Bold'" font-size="27.5862">0</text>
<text transform="matrix(1.0038 0 0 1 360.8194 93.8938)" fill="#294270" font-family="'Roboto-Bold'" font-size="27.5862">0</text>
<text transform="matrix(1.0038 0 0 1 237.7432 93.8938)" fill="#294270" font-family="'Roboto-Bold'" font-size="27.5862">0</text>
<text transform="matrix(1.0038 0 0 1 237.7432 124.5451)" fill="#294270" font-family="'Roboto-Bold'" font-size="27.5862">0</text>
<text transform="matrix(1.0038 0 0 1 237.7432 32.59)" fill="#294270" font-family="'Roboto-Bold'" font-size="27.5862">0</text>
<text transform="matrix(1.0038 0 0 1 237.7432 63.2414)" fill="#294270" font-family="'Roboto-Bold'" font-size="27.5862">0</text>
<text transform="matrix(1.0038 0 0 1 391.5879 32.591)" fill="#294270" font-family="'Roboto-Bold'" font-size="27.5862">0</text>
<text transform="matrix(1.0038 0 0 1 268.5117 32.59)" fill="#294270" font-family="'Roboto-Bold'" font-size="27.5862">0</text>
<text transform="matrix(1.0038 0 0 1 299.2813 32.59)" fill="#294270" font-family="'Roboto-Bold'" font-size="27.5862">0</text>
<text transform="matrix(1.0038 0 0 1 330.0508 32.59)" fill="#294270" font-family="'Roboto-Bold'" font-size="27.5862">0</text>
<text transform="matrix(1.0038 0 0 1 360.8194 32.59)" fill="#294270" font-family="'Roboto-Bold'" font-size="27.5862">0</text>
<text transform="matrix(1.0038 0 0 1 330.0508 124.5451)" fill="#294270" font-family="'Roboto-Bold'" font-size="27.5862">2</text>
<text transform="matrix(1.0038 0 0 1 330.0508 155.1975)" fill="#294270" font-family="'Roboto-Bold'" font-size="27.5862">2</text>
<text transform="matrix(1.0038 0 0 1 299.2803 155.1975)" fill="#294270" font-family="'Roboto-Bold'" font-size="27.5862">2</text>
<text transform="matrix(1.0038 0 0 1 268.5117 155.1975)" fill="#294270" font-family="'Roboto-Bold'" font-size="27.5862">2</text>
<text transform="matrix(1.0038 0 0 1 330.0508 63.2414)" fill="#294270" font-family="'Roboto-Bold'" font-size="27.5862">2</text>
<text transform="matrix(1.0038 0 0 1 299.2803 63.2414)" fill="#294270" font-family="'Roboto-Bold'" font-size="27.5862">2</text>
<text transform="matrix(1.0038 0 0 1 268.5117 63.2414)" fill="#294270" font-family="'Roboto-Bold'" font-size="27.5862">2</text>
<text transform="matrix(1.0038 0 0 1 299.2803 216.5012)" fill="#294270" font-family="'Roboto-Bold'" font-size="27.5862">2</text>
<text transform="matrix(1.0038 0 0 1 268.5117 216.5012)" fill="#294270" font-family="'Roboto-Bold'" font-size="27.5862">2</text>
<text transform="matrix(1.0038 0 0 1 237.7422 216.5012)" fill="#294270" font-family="'Roboto-Bold'" font-size="27.5862">2</text>
<text transform="matrix(1.0038 0 0 1 391.5879 216.5012)" fill="#294270" font-family="'Roboto-Bold'" font-size="27.5862">2</text>
<text transform="matrix(1.0038 0 0 1 360.8194 216.5012)" fill="#294270" font-family="'Roboto-Bold'" font-size="27.5862">2</text>
<text transform="matrix(1.0038 0 0 1 330.0508 216.5012)" fill="#294270" font-family="'Roboto-Bold'" font-size="27.5862">2</text>
<text transform="matrix(1.0038 0 0 1 268.5117 124.5451)" fill="#294270" font-family="'Roboto-Bold'" font-size="27.5862">2</text>
<text transform="matrix(1.0038 0 0 1 268.5117 93.8938)" fill="#294270" font-family="'Roboto-Bold'" font-size="27.5862">2</text>
<text transform="matrix(1.0038 0 0 1 391.5879 185.8498)" fill="#294270" font-family="'Roboto-Bold'" font-size="27.5862">2</text>
<text transform="matrix(1.0038 0 0 1 391.5879 93.8938)" fill="#294270" font-family="'Roboto-Bold'" font-size="27.5862">2</text>
<text transform="matrix(1.0038 0 0 1 391.5879 155.1975)" fill="#294270" font-family="'Roboto-Bold'" font-size="27.5862">2</text>
<text transform="matrix(1.0038 0 0 1 391.5879 124.5451)" fill="#294270" font-family="'Roboto-Bold'" font-size="27.5862">2</text>
<text transform="matrix(1.0038 0 0 1 391.5879 63.2414)" fill="#294270" font-family="'Roboto-Bold'" font-size="27.5862">2</text>
<text transform="matrix(1.0038 0 0 1 360.8194 63.2414)" fill="#294270" font-family="'Roboto-Bold'" font-size="27.5862">3</text>
<text transform="matrix(1.0038 0 0 1 278.7681 244.5959)"><tspan x="0" y="0" fill="#294270" font-family="'Roboto-Bold'" font-size="18.3908">first: (6, 0)</tspan><tspan x="-13" y="22.1" fill="#294270" font-family="'Roboto-Bold'" font-size="18.3908">second: (3, 3)</tspan><tspan x="-7.5" y="44.1" fill="#294270" font-family="'Roboto-Bold'" font-size="18.3908">result: False</tspan></text>
</svg>
