<?xml version="1.0" encoding="UTF-8" standalone="no"?>
<svg
   xmlns:dc="http://purl.org/dc/elements/1.1/"
   xmlns:cc="http://creativecommons.org/ns#"
   xmlns:rdf="http://www.w3.org/1999/02/22-rdf-syntax-ns#"
   xmlns:svg="http://www.w3.org/2000/svg"
   xmlns="http://www.w3.org/2000/svg"
   width="1080"
   height="1080"
   viewBox="0 0 285.75001 285.75001"
   version="1.1"
   id="svg8">
  <defs
     id="defs2">
    <marker
       style="overflow:visible"
       id="Arrow1Mend"
       refX="0"
       refY="0"
       orient="auto">
      <path
         transform="matrix(-0.4,0,0,-0.4,-4,0)"
         style="fill:#fa8f00;fill-opacity:1;fill-rule:evenodd;stroke:#fa8f00;stroke-width:1.00000003pt;stroke-opacity:1"
         d="M 0,0 5,-5 -12.5,0 5,5 Z"
         id="path5322" />
    </marker>
    <marker
       style="overflow:visible"
       id="Arrow1Mend-4"
       refX="0"
       refY="0"
       orient="auto">
      <path
         transform="matrix(-0.4,0,0,-0.4,-4,0)"
         style="fill:#fa8f00;fill-opacity:1;fill-rule:evenodd;stroke:#fa8f00;stroke-width:1.00000003pt;stroke-opacity:1"
         d="M 0,0 5,-5 -12.5,0 5,5 Z"
         id="path5322-5" />
    </marker>
  </defs>
  <metadata
     id="metadata5">
    <rdf:RDF>
      <cc:Work
         rdf:about="">
        <dc:format>image/svg+xml</dc:format>
        <dc:type
           rdf:resource="http://purl.org/dc/dcmitype/StillImage" />
        <dc:title></dc:title>
      </cc:Work>
    </rdf:RDF>
  </metadata>
  <rect
     style="fill:#c9ebfb;fill-opacity:1;stroke:none;stroke-width:18.2091732;stroke-linecap:round;stroke-miterlimit:4;stroke-dasharray:none;stroke-opacity:1;paint-order:markers stroke fill"
     id="rect7624"
     width="285.75"
     height="285.75"
     x="0.0084436871"
     y="-0.0035707499" />
  <g
     id="g152"
     transform="matrix(1.4552084,0,0,1.4552084,353.40658,-315.79146)" />
  <g
     id="g154"
     transform="matrix(1.4552084,0,0,1.4552084,353.40658,-315.79146)" />
  <g
     id="g156"
     transform="matrix(1.4552084,0,0,1.4552084,353.40658,-315.79146)" />
  <g
     id="g158"
     transform="matrix(1.4552084,0,0,1.4552084,353.40658,-315.79146)" />
  <g
     id="g160"
     transform="matrix(1.4552084,0,0,1.4552084,353.40658,-315.79146)" />
  <g
     id="g162"
     transform="matrix(1.4552084,0,0,1.4552084,353.40658,-315.79146)" />
  <g
     id="g164"
     transform="matrix(1.4552084,0,0,1.4552084,353.40658,-315.79146)" />
  <g
     id="g166"
     transform="matrix(1.4552084,0,0,1.4552084,353.40658,-315.79146)" />
  <g
     id="g168"
     transform="matrix(1.4552084,0,0,1.4552084,353.40658,-315.79146)" />
  <g
     id="g170"
     transform="matrix(1.4552084,0,0,1.4552084,353.40658,-315.79146)" />
  <g
     id="g172"
     transform="matrix(1.4552084,0,0,1.4552084,353.40658,-315.79146)" />
  <g
     id="g174"
     transform="matrix(1.4552084,0,0,1.4552084,353.40658,-315.79146)" />
  <g
     id="g176"
     transform="matrix(1.4552084,0,0,1.4552084,353.40658,-315.79146)" />
  <g
     id="g178"
     transform="matrix(1.4552084,0,0,1.4552084,353.40658,-315.79146)" />
  <g
     id="g180"
     transform="matrix(1.4552084,0,0,1.4552084,353.40658,-315.79146)" />
  <flowRoot
     style="font-style:normal;font-variant:normal;font-weight:500;font-stretch:normal;font-size:40px;line-height:1.25;font-family:Roboto;-inkscape-font-specification:'Roboto Medium';letter-spacing:0px;word-spacing:0px;fill:#000000;fill-opacity:1;stroke:none"
     id="flowRoot1041"
     xml:space="preserve"
     transform="matrix(1.4552084,0,0,1.4552084,353.40658,-315.79146)"><flowRegion
       id="flowRegion1043"><rect
         y="550.21259"
         x="1147.9391"
         height="40.43428"
         width="3.9448078"
         id="rect1045" /></flowRegion><flowPara
       id="flowPara1047" /></flowRoot>  <g
     id="g2061"
     transform="matrix(0.52916668,0,0,0.52916668,9.5024532,7.3535496)" />
  <g
     id="g2063"
     transform="matrix(0.52916668,0,0,0.52916668,9.5024532,7.3535496)" />
  <g
     id="g2065"
     transform="matrix(0.52916668,0,0,0.52916668,9.5024532,7.3535496)" />
  <g
     id="g2067"
     transform="matrix(0.52916668,0,0,0.52916668,9.5024532,7.3535496)" />
  <g
     id="g2069"
     transform="matrix(0.52916668,0,0,0.52916668,9.5024532,7.3535496)" />
  <g
     id="g2071"
     transform="matrix(0.52916668,0,0,0.52916668,9.5024532,7.3535496)" />
  <g
     id="g2073"
     transform="matrix(0.52916668,0,0,0.52916668,9.5024532,7.3535496)" />
  <g
     id="g2075"
     transform="matrix(0.52916668,0,0,0.52916668,9.5024532,7.3535496)" />
  <g
     id="g2077"
     transform="matrix(0.52916668,0,0,0.52916668,9.5024532,7.3535496)" />
  <g
     id="g2079"
     transform="matrix(0.52916668,0,0,0.52916668,9.5024532,7.3535496)" />
  <g
     id="g2081"
     transform="matrix(0.52916668,0,0,0.52916668,9.5024532,7.3535496)" />
  <g
     id="g2083"
     transform="matrix(0.52916668,0,0,0.52916668,9.5024532,7.3535496)" />
  <g
     id="g2085"
     transform="matrix(0.52916668,0,0,0.52916668,9.5024532,7.3535496)" />
  <g
     id="g2087"
     transform="matrix(0.52916668,0,0,0.52916668,9.5024532,7.3535496)" />
  <g
     id="g2089"
     transform="matrix(0.52916668,0,0,0.52916668,9.5024532,7.3535496)" />
  <g
     style="fill:#294270;fill-opacity:1"
     transform="matrix(0.47625001,0,0,0.47625001,20.955002,23.376613)"
     id="g4303">
    <g
       style="fill:#294270;fill-opacity:1"
       id="g4301">
      <path
         style="fill:#294270;fill-opacity:1"
         id="path4299"
         d="M 472,371.5 V 472 H 371.5 V 442 H 442 V 70 H 70 v 171 h 40 V 110 h 131 v 30 H 140 V 372 H 372 V 271 h -40 v 61 h -61 v -30 h 31 v -92 h -92 v 92 h 31 v 30 H 180 V 180 h 152 v 61 h 40 V 140 H 271 V 110 H 402 V 402 H 271 v 40 h 70.5 v 30 H 40 V 170.5 H 0 V 512 H 512 V 371.5 Z M 241,241 h 30 v 30 h -30 z" />
    </g>
  </g>
  <g
     style="fill:#294270;fill-opacity:1"
     transform="matrix(0.47625001,0,0,0.47625001,20.955002,23.376613)"
     id="g4309">
    <g
       style="fill:#294270;fill-opacity:1"
       id="g4307">
      <polygon
         style="fill:#294270;fill-opacity:1"
         id="polygon4305"
         points="110,271 70,271 70,442 241,442 241,402 110,402 " />
    </g>
  </g>
  <g
     style="fill:#294270;fill-opacity:1"
     transform="matrix(0.47625001,0,0,0.47625001,20.955002,23.376613)"
     id="g4315">
    <g
       style="fill:#294270;fill-opacity:1"
       id="g4313">
      <polygon
         style="fill:#294270;fill-opacity:1"
         id="polygon4311"
         points="512,0 0,0 0,140.5 40,140.5 40,40 472,40 472,341.5 512,341.5 " />
    </g>
  </g>
  <g
     style="fill:#294270;fill-opacity:1"
     transform="matrix(0.47625001,0,0,0.47625001,20.955002,23.376613)"
     id="g4317" />
  <g
     style="fill:#294270;fill-opacity:1"
     transform="matrix(0.47625001,0,0,0.47625001,20.955002,23.376613)"
     id="g4319" />
  <g
     style="fill:#294270;fill-opacity:1"
     transform="matrix(0.47625001,0,0,0.47625001,20.955002,23.376613)"
     id="g4321" />
  <g
     style="fill:#294270;fill-opacity:1"
     transform="matrix(0.47625001,0,0,0.47625001,20.955002,23.376613)"
     id="g4323" />
  <g
     style="fill:#294270;fill-opacity:1"
     transform="matrix(0.47625001,0,0,0.47625001,20.955002,23.376613)"
     id="g4325" />
  <g
     style="fill:#294270;fill-opacity:1"
     transform="matrix(0.47625001,0,0,0.47625001,20.955002,23.376613)"
     id="g4327" />
  <g
     style="fill:#294270;fill-opacity:1"
     transform="matrix(0.47625001,0,0,0.47625001,20.955002,23.376613)"
     id="g4329" />
  <g
     style="fill:#294270;fill-opacity:1"
     transform="matrix(0.47625001,0,0,0.47625001,20.955002,23.376613)"
     id="g4331" />
  <g
     style="fill:#294270;fill-opacity:1"
     transform="matrix(0.47625001,0,0,0.47625001,20.955002,23.376613)"
     id="g4333" />
  <g
     style="fill:#294270;fill-opacity:1"
     transform="matrix(0.47625001,0,0,0.47625001,20.955002,23.376613)"
     id="g4335" />
  <g
     style="fill:#294270;fill-opacity:1"
     transform="matrix(0.47625001,0,0,0.47625001,20.955002,23.376613)"
     id="g4337" />
  <g
     style="fill:#294270;fill-opacity:1"
     transform="matrix(0.47625001,0,0,0.47625001,20.955002,23.376613)"
     id="g4339" />
  <g
     style="fill:#294270;fill-opacity:1"
     transform="matrix(0.47625001,0,0,0.47625001,20.955002,23.376613)"
     id="g4341" />
  <g
     style="fill:#294270;fill-opacity:1"
     transform="matrix(0.47625001,0,0,0.47625001,20.955002,23.376613)"
     id="g4343" />
  <g
     style="fill:#294270;fill-opacity:1"
     transform="matrix(0.47625001,0,0,0.47625001,20.955002,23.376613)"
     id="g4345" />
</svg>
